<svg width="28" height="29" viewBox="0 0 28 29" fill="none" xmlns="http://www.w3.org/2000/svg">
<path d="M14 26.4985C20.7655 26.4985 26.25 21.014 26.25 14.2485C26.25 7.48305 20.7655 1.99854 14 1.99854C7.23451 1.99854 1.75 7.48305 1.75 14.2485C1.75 21.014 7.23451 26.4985 14 26.4985Z" fill="url(#paint0_linear_12_4362)"/>
<path d="M16.141 7.82081C16.4057 7.35866 16.2474 6.76839 15.7875 6.5024C15.3275 6.23641 14.7399 6.39543 14.4751 6.85757L14.0134 7.66365L13.5516 6.85757C13.2868 6.39543 12.6992 6.23641 12.2392 6.5024C11.7793 6.76839 11.621 7.35866 11.8857 7.82081L12.9045 9.59914L9.68205 15.2241H7.08602C6.55526 15.2241 6.125 15.6563 6.125 16.1895C6.125 16.7228 6.55526 17.155 7.08602 17.155H16.1284C16.2076 16.9457 16.2911 16.5866 16.2023 16.2566C16.0688 15.7605 15.575 15.2241 14.7474 15.2241H11.8997L16.141 7.82081Z" fill="white"/>
<path d="M10.1826 18.2228C10.0186 18.0398 9.65126 17.7475 9.32908 17.6513C8.83794 17.5046 8.46557 17.5966 8.2777 17.6768L7.56186 18.9264C7.2971 19.3885 7.45538 19.9787 7.91539 20.2447C8.37539 20.5107 8.96289 20.3518 9.22767 19.8896L10.1826 18.2228Z" fill="white"/>
<path d="M19.45 17.155H20.9132C21.444 17.155 21.8742 16.7228 21.8742 16.1895C21.8742 15.6563 21.444 15.2241 20.9132 15.2241H18.3439L15.4495 10.172C15.2346 10.3773 14.8223 10.9017 14.76 11.4962C14.68 12.2605 14.8 12.9042 15.1604 13.5344C16.3721 15.6534 17.5856 17.7715 18.799 19.8895C19.0637 20.3517 19.6512 20.5106 20.1113 20.2446C20.5713 19.9786 20.7296 19.3884 20.4648 18.9263L19.45 17.155Z" fill="white"/>
<defs>
<linearGradient id="paint0_linear_12_4362" x1="14" y1="1.99854" x2="14" y2="26.4985" gradientUnits="userSpaceOnUse">
<stop stop-color="#2AC9FA"/>
<stop offset="1" stop-color="#1F65EB"/>
</linearGradient>
</defs>
</svg>
