<svg width="28" height="29" viewBox="0 0 28 29" fill="none" xmlns="http://www.w3.org/2000/svg">
<path d="M19.9254 10.4813C17.1373 8.9219 12.6624 6.41788 5.72155 2.53151C5.2536 2.22246 4.71519 2.18196 4.25 2.33942L16.1586 14.248L19.9254 10.4813Z" fill="#32BBFF"/>
<path d="M4.24983 2.33948C4.16264 2.36901 4.0778 2.40463 3.99666 2.44767C3.48295 2.72554 3.10547 3.26024 3.10547 3.93651V24.5597C3.10547 25.2359 3.48291 25.7706 3.99666 26.0485C4.07766 26.0915 4.16245 26.1272 4.24955 26.1569L16.1584 14.2481L4.24983 2.33948Z" fill="#32BBFF"/>
<path d="M16.1589 14.248L4.25 26.1569C4.71533 26.3155 5.25374 26.2781 5.72183 25.9646C12.453 22.1953 16.8774 19.721 19.6977 18.1483C19.7762 18.1042 19.8532 18.0611 19.9292 18.0184L16.1589 14.248Z" fill="#32BBFF"/>
<path d="M3 14.2485V24.639C3 25.3205 3.37591 25.8593 3.88757 26.1392C3.96824 26.1825 4.0527 26.2186 4.13944 26.2485L16 14.2485H3Z" fill="#2C9FD9"/>
<path d="M5.73247 2.52692C5.17427 2.1654 4.51601 2.1757 4 2.4443L16.0348 14.2485L20 10.3594C17.1995 8.82298 12.7045 6.35592 5.73247 2.52692Z" fill="#29CC5E"/>
<path d="M16.0322 14.2485L4 26.051C4.51594 26.3195 5.174 26.335 5.73207 25.9684C12.4919 22.2553 16.9352 19.8179 19.7675 18.2687C19.8464 18.2252 19.9236 18.1827 20 18.1407L16.0322 14.2485Z" fill="#D93F21"/>
<path d="M25 14.2466C25 13.6603 24.7149 13.0686 24.1497 12.7404C24.1497 12.7404 23.0928 12.1286 19.8533 10.2485L16 14.2466L19.8571 18.2485C23.061 16.382 24.1497 15.7526 24.1497 15.7526C24.7149 15.4246 25 14.8329 25 14.2466Z" fill="#FFD500"/>
<path d="M24.1497 15.7539C24.7149 15.426 25 14.8346 25 14.2485H16L19.8571 18.2485C23.0611 16.383 24.1497 15.7539 24.1497 15.7539Z" fill="#FFAA00"/>
</svg>
