<svg width="602" height="252" viewBox="0 0 602 252" fill="none" xmlns="http://www.w3.org/2000/svg">
<g clip-path="url(#clip0_2075_1346)">
<rect x="1" y="1" width="600" height="250" rx="17.4597" fill="#050505"/>
<rect x="1" y="1" width="600" height="250" rx="17.4597" fill="url(#paint0_linear_2075_1346)"/>
<g opacity="0.3">
<path d="M18.2863 227.14L13.3676 224.246C13.0993 224.088 12.7936 224.005 12.4822 224.005H2.74597C1.7817 224.005 1 224.786 1 225.751V257.254C1 258.218 1.78169 259 2.74596 259H592.254C593.218 259 594 258.218 594 257.254V102.71C594 102.612 593.992 102.514 593.975 102.417L589.997 79.0091C589.663 77.0458 586.831 77.0822 586.547 79.0534L583.53 100.06C583.258 101.957 580.57 102.093 580.108 100.233L576.553 85.9386C576.45 85.5244 576.198 85.1622 575.846 84.9206L572.129 82.3689C571.272 81.7806 570.094 82.0668 569.603 82.9826L566.064 89.5766C565.433 90.7521 563.77 90.8144 563.053 89.6893L559.624 84.31C559.147 83.5603 558.182 83.2893 557.383 83.6807L554.821 84.9371C553.834 85.421 552.651 84.8835 552.366 83.8219L547.394 65.2934C547.189 64.5304 546.498 64 545.708 64H541.781C541.39 64 541.011 64.1311 540.703 64.3723L535.5 68.4548C535.373 68.5541 535.261 68.6704 535.166 68.8005L529.591 76.4552C529.491 76.5925 529.411 76.7437 529.355 76.9039L525.218 88.6692C524.671 90.2249 522.471 90.2249 521.924 88.6692L517.701 76.6622L513.99 69.3837C513.252 67.9363 511.111 68.1931 510.736 69.7739L507.308 84.2288C506.908 85.9149 504.562 86.0516 503.969 84.4234L502.494 80.3734C501.871 78.6639 499.376 78.9274 499.124 80.7293L495.546 106.341C495.278 108.264 492.543 108.379 492.114 106.486L490.096 97.5779C489.683 95.7558 487.083 95.7678 486.687 97.5935L482.535 116.73C482.503 116.877 482.452 117.019 482.384 117.153L478.005 125.742C477.391 126.945 475.703 127.026 474.977 125.888L473.212 123.119C472.35 121.766 470.273 122.194 470.016 123.778L465.055 154.428C464.948 155.091 464.469 155.634 463.824 155.824L460.726 156.735C459.785 157.012 458.801 156.46 458.547 155.513L455.718 144.972C455.212 143.084 452.459 143.328 452.292 145.276L448.44 190.227C448.265 192.269 445.323 192.391 444.98 190.371L443.219 180.014C442.887 178.059 440.07 178.083 439.772 180.044L435.863 205.728C435.694 206.835 434.542 207.5 433.499 207.091L429.952 205.699C429.762 205.625 429.587 205.518 429.434 205.383L424.273 200.828C423.965 200.556 423.762 200.184 423.701 199.778L418.869 167.555C418.606 165.8 416.196 165.511 415.526 167.155L414.582 169.469C413.903 171.134 411.454 170.809 411.233 169.025L406.206 128.601C406.194 128.509 406.175 128.417 406.149 128.328L402.554 115.99C402.03 114.19 399.425 114.369 399.151 116.223L394.505 147.662C394.469 147.906 394.382 148.138 394.25 148.346L390.363 154.443C389.608 155.629 387.834 155.481 387.284 154.188L382.799 143.633C382.741 143.496 382.701 143.352 382.679 143.205L377.497 108.142C377.265 106.568 375.22 106.1 374.326 107.415L371.196 112.019C371.05 112.235 370.953 112.481 370.914 112.738L365.863 145.922C365.614 147.561 363.435 147.963 362.618 146.52L361.816 145.104C360.989 143.644 358.78 144.077 358.565 145.741L355.171 172.033C354.908 174.074 351.948 174.059 351.706 172.016L348.851 147.94C348.616 145.953 345.766 145.86 345.401 147.827L343.501 158.072C343.143 160.005 340.359 159.963 340.059 158.021L337.548 141.765C337.241 139.782 334.379 139.797 334.094 141.783L331.268 161.455C330.992 163.382 328.247 163.479 327.834 161.577L325.892 152.626C325.486 150.757 322.804 150.806 322.467 152.689L319.004 172.045C318.716 173.654 316.572 174.021 315.766 172.598L314.62 170.575C313.82 169.163 311.693 169.512 311.387 171.106L306.714 195.39C306.544 196.276 305.727 196.886 304.829 196.798L301.868 196.508C301.086 196.431 300.452 195.842 300.318 195.068L296.108 170.709C295.785 168.842 293.138 168.753 292.691 170.594L290.44 179.864C290.012 181.626 287.513 181.648 287.054 179.893L284.263 169.218C283.838 167.595 281.591 167.447 280.957 169.001L278.652 174.653C278.065 176.09 276.035 176.105 275.428 174.676L272.496 167.775C271.946 166.481 270.172 166.334 269.416 167.519L265.515 173.64C265.393 173.832 265.309 174.047 265.269 174.271L259.5 206.516C259.474 206.663 259.429 206.807 259.366 206.943L256.203 213.766C255.461 215.366 253.085 214.982 252.884 213.23L248.232 172.624C248.051 171.044 246.023 170.509 245.086 171.795L242.029 175.991C241.913 176.152 241.77 176.291 241.606 176.403L236.436 179.952C236.142 180.154 235.917 180.441 235.79 180.775L230.188 195.609C230.139 195.737 230.076 195.86 229.999 195.974L224.246 204.436L220.37 211.277C219.616 212.609 217.635 212.394 217.183 210.932L214.15 201.118C213.645 199.485 211.337 199.475 210.818 201.103L208.673 207.834C208.127 209.549 205.659 209.416 205.299 207.653L200.925 186.204C200.826 185.719 200.526 185.299 200.099 185.048L196.352 182.844C195.542 182.367 194.5 182.617 193.995 183.41L189.199 190.935C189.088 191.109 189.009 191.301 188.965 191.503L184.689 211.213C184.3 213.002 181.771 213.064 181.296 211.295L177.888 198.594C177.588 197.479 176.31 196.956 175.316 197.541L172.045 199.466C171.647 199.7 171.358 200.082 171.241 200.529L165.555 222.278L160.427 237.363C160.055 238.458 158.74 238.895 157.786 238.241L153.942 235.602C153.858 235.545 153.78 235.48 153.708 235.409L148.205 230.013C148.035 229.846 147.901 229.646 147.811 229.426L142.233 215.75C142.131 215.501 141.973 215.279 141.771 215.101L136.564 210.505C136.332 210.299 136.049 210.16 135.745 210.1L131.707 209.308C130.908 209.152 130.106 209.569 129.775 210.314L125.648 219.623C125.114 220.827 123.491 221.029 122.678 219.993L120.394 217.081C119.582 216.045 117.958 216.247 117.425 217.451L113.101 227.203C112.87 227.724 112.4 228.099 111.841 228.209L108.441 228.875C107.55 229.05 106.673 228.512 106.425 227.638L101.519 210.317C101.238 209.325 100.162 208.791 99.2018 209.168L95.7773 210.511C95.3589 210.675 95.0199 210.995 94.8308 211.402L90.1251 221.555C89.6707 222.535 88.4438 222.871 87.5529 222.26L84.3031 220.029C83.7442 219.645 83.0138 219.62 82.4296 219.964L78.2502 222.423C77.788 222.695 77.2264 222.739 76.7272 222.543L72.0916 220.725C71.8017 220.611 71.5476 220.422 71.3554 220.177L66.7909 214.358C66.2224 213.633 65.1885 213.475 64.4291 213.996L61.3566 216.105C60.5591 216.653 59.4685 216.448 58.9246 215.648L54.6899 209.418C54.2967 208.84 53.5963 208.552 52.9099 208.687L48.6855 209.515C48.3508 209.581 48.0427 209.743 47.7991 209.982L42.3033 215.371L36.637 220.372C36.5026 220.491 36.3873 220.63 36.2951 220.783L30.5651 230.336L26.451 239.615C25.8141 241.052 23.752 240.982 23.2143 239.505L19.0415 228.047C18.9028 227.666 18.6358 227.346 18.2863 227.14Z" fill="url(#paint1_linear_2075_1346)"/>
<path d="M1 223.494L6.44392 226.622C6.79678 226.825 7.06772 227.145 7.20991 227.526L11.5022 239.037C12.0463 240.497 14.0842 240.567 14.7279 239.149L18.9697 229.804L24.8175 220.283C24.9117 220.129 25.029 219.991 25.1653 219.874L30.9495 214.888L36.5668 209.507C36.81 209.275 37.1153 209.117 37.4461 209.054L41.8156 208.217C42.4929 208.087 43.1831 208.368 43.5771 208.934L47.939 215.201C48.4831 215.982 49.5533 216.184 50.3443 215.653L53.5786 213.485C54.3312 212.98 55.3448 213.135 55.9122 213.842L60.6033 219.683C60.7969 219.924 61.0512 220.11 61.34 220.22L66.1139 222.049C66.6043 222.237 67.1532 222.194 67.6085 221.933L71.9379 219.445C72.514 219.113 73.2282 219.138 73.7801 219.508L77.1871 221.792C78.0729 222.386 79.2795 222.054 79.7367 221.091L84.5588 210.93C84.7512 210.524 85.0924 210.208 85.5115 210.048L89.0757 208.682C90.0299 208.317 91.0927 208.845 91.3773 209.826L96.3953 227.129C96.6464 227.995 97.5153 228.527 98.4007 228.358L101.941 227.68C102.497 227.573 102.968 227.203 103.202 226.687L107.645 216.899C108.183 215.714 109.781 215.513 110.596 216.528L113.03 219.559C113.845 220.574 115.444 220.372 115.982 219.187L120.23 209.829C120.563 209.094 121.356 208.684 122.148 208.836L126.33 209.637C126.63 209.694 126.91 209.829 127.141 210.029L132.466 214.619C132.671 214.796 132.832 215.018 132.937 215.268L138.627 228.895C138.72 229.116 138.857 229.317 139.031 229.483L144.648 234.863C144.721 234.933 144.8 234.996 144.883 235.052L148.869 237.725C149.819 238.362 151.115 237.929 151.491 236.848L156.737 221.772L162.54 200.098C162.66 199.65 162.954 199.267 163.356 199.036L166.761 197.079C167.751 196.51 169.012 197.029 169.315 198.13L172.844 210.976C173.326 212.731 175.837 212.669 176.232 210.892L180.628 191.101C180.674 190.897 180.756 190.702 180.87 190.526L185.785 182.994C186.291 182.219 187.315 181.973 188.117 182.434L191.998 184.664C192.43 184.912 192.735 185.333 192.837 185.821L197.328 207.332C197.694 209.082 200.143 209.217 200.697 207.516L202.971 200.547C203.498 198.934 205.784 198.944 206.296 200.562L209.454 210.546C209.912 211.992 211.868 212.207 212.629 210.896L216.636 203.987L222.506 195.554C222.586 195.439 222.652 195.316 222.702 195.186L228.418 180.405C228.547 180.07 228.776 179.784 229.074 179.584L234.358 176.042C234.522 175.931 234.667 175.794 234.785 175.635L237.973 171.36C238.917 170.094 240.923 170.632 241.107 172.2L245.878 212.872C246.083 214.613 248.438 215.001 249.19 213.417L252.477 206.49C252.543 206.352 252.59 206.206 252.617 206.056L258.502 173.926C258.544 173.698 258.631 173.48 258.758 173.286L262.785 167.114C263.544 165.95 265.294 166.097 265.848 167.372L268.912 174.414C269.525 175.825 271.531 175.81 272.124 174.391L274.562 168.552C275.204 167.015 277.429 167.164 277.86 168.774L280.776 179.668C281.242 181.41 283.722 181.388 284.157 179.638L286.533 170.079C286.988 168.25 289.618 168.34 289.947 170.196L294.274 194.648C294.41 195.42 295.046 196.007 295.827 196.082L298.921 196.378C299.814 196.464 300.627 195.858 300.801 194.978L305.588 170.672C305.9 169.091 308.003 168.74 308.812 170.134L310.1 172.354C310.914 173.758 313.035 173.389 313.328 171.793L316.912 152.225C317.255 150.352 319.921 150.302 320.334 152.16L322.401 161.466C322.821 163.358 325.551 163.258 325.832 161.341L328.78 141.296C329.071 139.318 331.92 139.302 332.232 141.277L334.866 157.93C335.172 159.864 337.941 159.906 338.306 157.983L340.329 147.324C340.701 145.365 343.538 145.46 343.778 147.439L346.754 171.956C347.002 173.993 349.95 174.009 350.219 171.975L353.733 145.383C353.951 143.731 356.138 143.294 356.974 144.735L357.918 146.363C358.744 147.787 360.9 147.382 361.154 145.756L366.322 112.59C366.363 112.328 366.463 112.079 366.614 111.862L369.87 107.184C370.772 105.888 372.793 106.359 373.029 107.92L378.329 142.947C378.352 143.097 378.394 143.243 378.455 143.383L383.061 153.971C383.615 155.246 385.365 155.393 386.124 154.229L390.136 148.081C390.273 147.871 390.363 147.635 390.4 147.388L395.165 115.895C395.444 114.051 398.032 113.87 398.565 115.657L402.282 128.12C402.31 128.211 402.329 128.304 402.341 128.398L407.488 168.82C407.714 170.593 410.142 170.922 410.831 169.272L411.909 166.691C412.589 165.063 414.978 165.355 415.246 167.099L420.195 199.334C420.258 199.745 420.466 200.12 420.781 200.392L426.052 204.936C426.205 205.067 426.379 205.171 426.567 205.244L430.256 206.657C431.294 207.054 432.434 206.394 432.605 205.295L436.632 179.452C436.937 177.5 439.739 177.475 440.078 179.421L441.961 190.246C442.312 192.259 445.242 192.135 445.421 190.099L449.393 144.819C449.563 142.879 452.3 142.631 452.816 144.509L455.764 155.239C456.022 156.176 456.996 156.723 457.93 156.454L461.162 155.526C461.81 155.34 462.292 154.798 462.403 154.133L467.479 123.502C467.739 121.932 469.793 121.5 470.663 122.834L472.572 125.759C473.302 126.876 474.965 126.796 475.582 125.613L480.085 116.986C480.156 116.851 480.209 116.706 480.242 116.557L484.514 97.3235C484.917 95.5091 487.5 95.497 487.92 97.3075L490.063 106.547C490.5 108.43 493.219 108.313 493.493 106.4L497.191 80.5368C497.448 78.7458 499.924 78.4788 500.556 80.174L502.162 84.4825C502.764 86.0951 505.089 85.9569 505.495 84.2844L509.046 69.6598C509.426 68.0935 511.544 67.835 512.29 69.2638L516.131 76.6218L520.478 88.6966C521.033 90.236 523.21 90.236 523.764 88.6966L528.023 76.866C528.081 76.7041 528.163 76.5517 528.266 76.4137L533.956 68.7843C534.052 68.6552 534.166 68.5401 534.294 68.4421L539.621 64.3601C539.926 64.1266 540.299 64 540.683 64H544.75C545.536 64 546.225 64.5254 546.433 65.2834L551.517 83.7868C551.806 84.8362 552.973 85.369 553.955 84.8989L556.681 83.5936C557.47 83.2154 558.418 83.4808 558.897 84.2142L562.46 89.6745C563.18 90.7785 564.817 90.7165 565.452 89.5612L569.122 82.8829C569.616 81.9847 570.773 81.7028 571.624 82.2736L575.475 84.8556C575.833 85.0951 576.089 85.4581 576.195 85.8749L579.869 100.302C580.34 102.151 583.011 102.013 583.288 100.126L586.427 78.7786C586.716 76.8156 589.535 76.7785 589.875 78.7333L594 102.439" stroke="url(#paint2_linear_2075_1346)" stroke-width="1.30948" stroke-linecap="square" stroke-linejoin="round"/>
</g>
<g filter="url(#filter0_d_2075_1346)">
<g filter="url(#filter1_f_2075_1346)">
<rect x="184.69" y="161.213" width="85.2953" height="38.2111" rx="7.5516" stroke="url(#paint3_linear_2075_1346)" stroke-width="1.8879"/>
</g>
<g filter="url(#filter2_f_2075_1346)">
<rect x="412.11" y="199.425" width="85.2953" height="38.2111" rx="7.5516" transform="rotate(-180 412.11 199.425)" stroke="url(#paint4_linear_2075_1346)" stroke-width="1.8879"/>
</g>
<g filter="url(#filter3_d_2075_1346)">
<path d="M187.394 167.898C187.394 164.041 190.52 160.914 194.377 160.914H250.618C254.475 160.914 257.601 164.041 257.601 167.898V192.898C257.601 196.755 254.475 199.882 250.618 199.882H194.377C190.52 199.882 187.394 196.755 187.394 192.898V167.898Z" fill="white" fill-opacity="0.1" shape-rendering="crispEdges"/>
<path d="M199.191 186.898V174.874H203.594C204.447 174.874 205.154 175.015 205.714 175.296C206.273 175.574 206.692 175.952 206.97 176.43C207.248 176.903 207.387 177.437 207.387 178.032C207.387 178.533 207.295 178.956 207.111 179.301C206.927 179.641 206.68 179.915 206.371 180.123C206.066 180.326 205.729 180.475 205.361 180.569V180.686C205.761 180.706 206.15 180.835 206.53 181.074C206.913 181.309 207.23 181.643 207.481 182.078C207.731 182.512 207.857 183.041 207.857 183.663C207.857 184.277 207.712 184.829 207.422 185.319C207.136 185.804 206.694 186.189 206.095 186.475C205.496 186.757 204.731 186.898 203.8 186.898H199.191ZM201.005 185.342H203.623C204.492 185.342 205.115 185.174 205.491 184.837C205.866 184.501 206.054 184.08 206.054 183.575C206.054 183.195 205.958 182.847 205.766 182.53C205.575 182.213 205.301 181.96 204.944 181.772C204.592 181.584 204.173 181.491 203.688 181.491H201.005V185.342ZM201.005 180.076H203.436C203.843 180.076 204.209 179.997 204.533 179.841C204.862 179.684 205.123 179.465 205.314 179.183C205.51 178.897 205.608 178.561 205.608 178.173C205.608 177.676 205.434 177.259 205.085 176.923C204.737 176.586 204.203 176.418 203.483 176.418H201.005V180.076ZM215.58 183.158V177.88H217.342V186.898H215.615V185.336H215.522C215.314 185.818 214.981 186.219 214.523 186.54C214.069 186.857 213.504 187.015 212.827 187.015C212.247 187.015 211.735 186.888 211.288 186.634C210.846 186.375 210.498 185.994 210.243 185.489C209.993 184.984 209.868 184.36 209.868 183.616V177.88H211.623V183.405C211.623 184.019 211.793 184.508 212.134 184.872C212.474 185.236 212.917 185.418 213.461 185.418C213.79 185.418 214.116 185.336 214.441 185.172C214.77 185.007 215.042 184.759 215.257 184.426C215.477 184.093 215.584 183.671 215.58 183.158ZM220.81 190.28C220.548 190.28 220.309 190.258 220.094 190.215C219.878 190.176 219.718 190.133 219.612 190.086L220.035 188.648C220.356 188.734 220.642 188.771 220.892 188.759C221.143 188.747 221.364 188.653 221.556 188.477C221.751 188.301 221.924 188.013 222.072 187.614L222.29 187.015L218.99 177.88H220.869L223.153 184.878H223.247L225.531 177.88H227.415L223.699 188.102C223.526 188.571 223.307 188.969 223.041 189.293C222.775 189.622 222.458 189.869 222.09 190.033C221.722 190.198 221.295 190.28 220.81 190.28Z" fill="white"/>
<rect x="239.345" y="176.508" width="7.78043" height="7.78043" rx="3.89022" fill="#FF783E"/>
<rect x="237.886" y="175.049" width="10.6981" height="10.6981" rx="5.34905" stroke="#D03900" stroke-opacity="0.3" stroke-width="2.91766"/>
</g>
<path d="M256.991 179.518C256.99 180.951 258.15 182.113 259.582 182.114C261.015 182.116 262.177 180.956 262.178 179.524C262.18 178.091 261.02 176.929 259.588 176.928C258.155 176.926 256.993 178.086 256.991 179.518ZM339.662 179.604L334.802 176.792L334.796 182.407L339.662 179.604ZM259.585 179.521L259.584 180.007L335.285 180.086L335.285 179.6L335.286 179.114L259.585 179.035L259.585 179.521Z" fill="white"/>
<rect x="287.264" y="169.213" width="22.3687" height="22.3687" rx="11.1844" fill="#0E0E10"/>
<rect x="287.264" y="169.213" width="22.3687" height="22.3687" rx="11.1844" stroke="white" stroke-width="0.972554"/>
<path d="M302.339 180.397L298.448 180.397M298.448 180.397L294.558 180.397M298.448 180.397L298.448 176.507M298.448 180.397L298.448 184.287" stroke="white" stroke-width="1.45883" stroke-linecap="round"/>
<g filter="url(#filter4_d_2075_1346)">
<path d="M414.296 167.898C414.296 164.041 411.169 160.914 407.312 160.914H346.28C342.422 160.914 339.296 164.041 339.296 167.898V192.898C339.296 196.755 342.422 199.882 346.28 199.882H407.312C411.169 199.882 414.296 196.755 414.296 192.898V167.898Z" fill="white" fill-opacity="0.1" shape-rendering="crispEdges"/>
<path d="M375.907 178.032C375.844 177.477 375.586 177.046 375.132 176.741C374.678 176.431 374.107 176.277 373.418 176.277C372.924 176.277 372.498 176.355 372.138 176.512C371.778 176.664 371.498 176.876 371.298 177.146C371.102 177.412 371.005 177.715 371.005 178.056C371.005 178.342 371.071 178.588 371.204 178.796C371.341 179.003 371.519 179.177 371.738 179.318C371.962 179.455 372.2 179.571 372.455 179.665C372.709 179.755 372.954 179.829 373.189 179.888L374.363 180.193C374.746 180.287 375.14 180.414 375.543 180.575C375.946 180.735 376.32 180.946 376.664 181.209C377.009 181.471 377.287 181.796 377.498 182.183C377.713 182.571 377.821 183.035 377.821 183.575C377.821 184.256 377.645 184.861 377.293 185.389C376.944 185.917 376.437 186.334 375.772 186.64C375.111 186.945 374.31 187.098 373.371 187.098C372.47 187.098 371.691 186.955 371.034 186.669C370.376 186.383 369.862 185.978 369.49 185.454C369.118 184.925 368.912 184.299 368.873 183.575H370.693C370.729 184.009 370.87 184.371 371.116 184.661C371.367 184.947 371.686 185.16 372.073 185.301C372.465 185.438 372.893 185.506 373.359 185.506C373.872 185.506 374.328 185.426 374.727 185.266C375.13 185.101 375.447 184.874 375.678 184.585C375.909 184.291 376.024 183.949 376.024 183.557C376.024 183.201 375.923 182.909 375.719 182.682C375.52 182.455 375.248 182.267 374.903 182.119C374.563 181.97 374.177 181.839 373.746 181.725L372.326 181.338C371.363 181.076 370.599 180.69 370.036 180.181C369.476 179.672 369.196 178.999 369.196 178.162C369.196 177.469 369.384 176.864 369.76 176.347C370.136 175.831 370.644 175.429 371.286 175.144C371.928 174.854 372.652 174.709 373.459 174.709C374.273 174.709 374.991 174.852 375.613 175.138C376.24 175.424 376.733 175.817 377.093 176.318C377.453 176.815 377.641 177.387 377.657 178.032H375.907ZM379.989 186.898V174.874H387.528V176.435H381.803V180.099H387.134V181.655H381.803V185.336H387.598V186.898H379.989ZM389.951 186.898V174.874H391.765V185.336H397.214V186.898H389.951ZM399.283 186.898V174.874H401.098V185.336H406.546V186.898H399.283Z" fill="white"/>
<rect width="7.78043" height="7.78043" rx="3.89022" transform="matrix(-1 0 0 1 357.552 176.508)" fill="#FF783E"/>
<rect x="1.45883" y="-1.45883" width="10.6981" height="10.6981" rx="5.34905" transform="matrix(-1 0 0 1 360.469 176.508)" stroke="#D03900" stroke-opacity="0.3" stroke-width="2.91766"/>
</g>
<path d="M300.5 80.875L300.845 172.031" stroke="url(#paint5_linear_2075_1346)" stroke-opacity="0.6" stroke-width="0.899438"/>
<rect x="247.52" y="49.5684" width="106.649" height="30.9516" rx="15.4758" fill="url(#paint6_linear_2075_1346)"/>
<path d="M270.915 70.0439V59.8856H272.448V68.7245H277.051V70.0439H270.915ZM278.68 70.0439V62.4252H280.163V70.0439H278.68ZM279.429 61.2496C279.171 61.2496 278.95 61.1636 278.765 60.9917C278.583 60.8164 278.492 60.6081 278.492 60.3667C278.492 60.122 278.583 59.9137 278.765 59.7417C278.95 59.5665 279.171 59.4789 279.429 59.4789C279.687 59.4789 279.907 59.5665 280.089 59.7417C280.274 59.9137 280.367 60.122 280.367 60.3667C280.367 60.6081 280.274 60.8164 280.089 60.9917C279.907 61.1636 279.687 61.2496 279.429 61.2496ZM288.676 62.4252L285.913 70.0439H284.326L281.558 62.4252H283.151L285.08 68.2881H285.16L287.084 62.4252H288.676ZM293.095 70.1977C292.344 70.1977 291.697 70.0373 291.155 69.7166C290.616 69.3925 290.199 68.9378 289.905 68.3525C289.614 67.7639 289.469 67.0745 289.469 66.2842C289.469 65.5038 289.614 64.816 289.905 64.2207C290.199 63.6255 290.609 63.1609 291.135 62.8269C291.664 62.493 292.283 62.326 292.99 62.326C293.42 62.326 293.837 62.3971 294.24 62.5393C294.644 62.6815 295.006 62.9047 295.327 63.2089C295.647 63.5131 295.9 63.9083 296.085 64.3944C296.271 64.8771 296.363 65.4641 296.363 66.1552V66.681H290.307V65.5699H294.91C294.91 65.1797 294.831 64.8341 294.672 64.5332C294.513 64.229 294.29 63.9893 294.002 63.814C293.718 63.6388 293.384 63.5511 293 63.5511C292.584 63.5511 292.22 63.6536 291.909 63.8587C291.602 64.0604 291.363 64.3249 291.195 64.6523C291.029 64.9763 290.947 65.3285 290.947 65.7088V66.5768C290.947 67.0861 291.036 67.5192 291.215 67.8764C291.396 68.2335 291.649 68.5063 291.974 68.6948C292.298 68.88 292.676 68.9726 293.109 68.9726C293.39 68.9726 293.647 68.9329 293.878 68.8535C294.11 68.7708 294.31 68.6485 294.478 68.4865C294.647 68.3244 294.776 68.1244 294.865 67.8863L296.269 68.1393C296.157 68.5526 295.955 68.9147 295.664 69.2255C295.376 69.5331 295.014 69.7728 294.578 69.9447C294.144 70.1134 293.65 70.1977 293.095 70.1977ZM305.113 70.0439H301.824V59.8856H305.217C306.212 59.8856 307.067 60.089 307.781 60.4957C308.496 60.8991 309.043 61.4794 309.423 62.2367C309.807 62.9906 309.999 63.895 309.999 64.9499C309.999 66.008 309.805 66.9174 309.418 67.678C309.035 68.4385 308.479 69.0238 307.752 69.4338C307.024 69.8406 306.145 70.0439 305.113 70.0439ZM303.357 68.7047H305.029C305.802 68.7047 306.446 68.5592 306.958 68.2682C307.471 67.9739 307.854 67.549 308.109 66.9935C308.363 66.4346 308.491 65.7534 308.491 64.9499C308.491 64.153 308.363 63.4767 308.109 62.9212C307.858 62.3657 307.482 61.944 306.983 61.6564C306.484 61.3687 305.864 61.2248 305.123 61.2248H303.357V68.7047ZM314.003 70.2126C313.52 70.2126 313.083 70.1233 312.693 69.9447C312.303 69.7629 311.994 69.5 311.766 69.1561C311.541 68.8122 311.428 68.3906 311.428 67.8912C311.428 67.4614 311.511 67.1075 311.676 66.8298C311.842 66.552 312.065 66.3321 312.346 66.1701C312.627 66.008 312.941 65.8857 313.288 65.803C313.636 65.7204 313.989 65.6575 314.35 65.6145C314.806 65.5616 315.177 65.5186 315.461 65.4856C315.745 65.4492 315.952 65.3913 316.081 65.312C316.21 65.2326 316.274 65.1036 316.274 64.9251V64.8904C316.274 64.4572 316.152 64.1215 315.907 63.8835C315.666 63.6454 315.306 63.5263 314.826 63.5263C314.327 63.5263 313.933 63.6371 313.646 63.8587C313.361 64.0769 313.164 64.3199 313.055 64.5878L311.662 64.2703C311.827 63.8074 312.068 63.4337 312.386 63.1494C312.706 62.8617 313.075 62.6533 313.492 62.5244C313.908 62.3921 314.347 62.326 314.806 62.326C315.11 62.326 315.433 62.3623 315.773 62.4351C316.117 62.5045 316.438 62.6335 316.736 62.822C317.037 63.0105 317.283 63.28 317.475 63.6305C317.667 63.9777 317.763 64.4291 317.763 64.9846V70.0439H316.314V69.0023H316.255C316.159 69.1941 316.015 69.3826 315.823 69.5678C315.631 69.753 315.385 69.9067 315.084 70.0291C314.783 70.1514 314.423 70.2126 314.003 70.2126ZM314.325 69.0222C314.735 69.0222 315.086 68.9411 315.377 68.7791C315.671 68.6171 315.894 68.4054 316.046 68.1442C316.202 67.8797 316.279 67.5969 316.279 67.296V66.3139C316.227 66.3668 316.124 66.4164 315.972 66.4627C315.823 66.5057 315.653 66.5437 315.461 66.5768C315.269 66.6066 315.082 66.6347 314.901 66.6611C314.719 66.6843 314.567 66.7041 314.444 66.7207C314.156 66.757 313.894 66.8182 313.656 66.9042C313.421 66.9902 313.232 67.1142 313.09 67.2762C312.951 67.4349 312.882 67.6465 312.882 67.9111C312.882 68.2781 313.017 68.5559 313.288 68.7444C313.56 68.9296 313.905 69.0222 314.325 69.0222ZM323.294 62.4252V63.6156H319.133V62.4252H323.294ZM320.249 60.5998H321.732V67.8069C321.732 68.0946 321.775 68.3112 321.861 68.4567C321.947 68.5989 322.058 68.6964 322.193 68.7493C322.332 68.799 322.482 68.8238 322.645 68.8238C322.764 68.8238 322.868 68.8155 322.957 68.799C323.046 68.7824 323.116 68.7692 323.165 68.7593L323.433 69.9844C323.347 70.0175 323.225 70.0506 323.066 70.0836C322.907 70.12 322.709 70.1398 322.471 70.1431C322.081 70.1498 321.717 70.0803 321.38 69.9348C321.042 69.7893 320.77 69.5645 320.561 69.2602C320.353 68.956 320.249 68.5741 320.249 68.1145V60.5998ZM327.152 70.2126C326.669 70.2126 326.233 70.1233 325.843 69.9447C325.452 69.7629 325.143 69.5 324.915 69.1561C324.69 68.8122 324.578 68.3906 324.578 67.8912C324.578 67.4614 324.66 67.1075 324.826 66.8298C324.991 66.552 325.214 66.3321 325.495 66.1701C325.776 66.008 326.091 65.8857 326.438 65.803C326.785 65.7204 327.139 65.6575 327.499 65.6145C327.956 65.5616 328.326 65.5186 328.61 65.4856C328.895 65.4492 329.101 65.3913 329.23 65.312C329.359 65.2326 329.424 65.1036 329.424 64.9251V64.8904C329.424 64.4572 329.301 64.1215 329.057 63.8835C328.815 63.6454 328.455 63.5263 327.975 63.5263C327.476 63.5263 327.083 63.6371 326.795 63.8587C326.511 64.0769 326.314 64.3199 326.205 64.5878L324.811 64.2703C324.976 63.8074 325.218 63.4337 325.535 63.1494C325.856 62.8617 326.225 62.6533 326.641 62.5244C327.058 62.3921 327.496 62.326 327.956 62.326C328.26 62.326 328.582 62.3623 328.923 62.4351C329.267 62.5045 329.587 62.6335 329.885 62.822C330.186 63.0105 330.432 63.28 330.624 63.6305C330.816 63.9777 330.912 64.4291 330.912 64.9846V70.0439H329.463V69.0023H329.404C329.308 69.1941 329.164 69.3826 328.972 69.5678C328.781 69.753 328.534 69.9067 328.233 70.0291C327.932 70.1514 327.572 70.2126 327.152 70.2126ZM327.474 69.0222C327.884 69.0222 328.235 68.9411 328.526 68.7791C328.82 68.6171 329.044 68.4054 329.196 68.1442C329.351 67.8797 329.429 67.5969 329.429 67.296V66.3139C329.376 66.3668 329.273 66.4164 329.121 66.4627C328.972 66.5057 328.802 66.5437 328.61 66.5768C328.419 66.6066 328.232 66.6347 328.05 66.6611C327.868 66.6843 327.716 66.7041 327.594 66.7207C327.306 66.757 327.043 66.8182 326.805 66.9042C326.57 66.9902 326.382 67.1142 326.239 67.2762C326.101 67.4349 326.031 67.6465 326.031 67.9111C326.031 68.2781 326.167 68.5559 326.438 68.7444C326.709 68.9296 327.055 69.0222 327.474 69.0222Z" fill="white"/>
</g>
</g>
<rect x="0.563508" y="0.563508" width="600.873" height="250.873" rx="17.8962" stroke="#131316" stroke-width="0.872984"/>
<defs>
<filter id="filter0_d_2075_1346" x="148.247" y="27.9184" width="305.195" height="213.85" filterUnits="userSpaceOnUse" color-interpolation-filters="sRGB">
<feFlood flood-opacity="0" result="BackgroundImageFix"/>
<feColorMatrix in="SourceAlpha" type="matrix" values="0 0 0 0 0 0 0 0 0 0 0 0 0 0 0 0 0 0 127 0" result="hardAlpha"/>
<feOffset dy="9.60282"/>
<feGaussianBlur stdDeviation="15.6264"/>
<feComposite in2="hardAlpha" operator="out"/>
<feColorMatrix type="matrix" values="0 0 0 0 0 0 0 0 0 0 0 0 0 0 0 0 0 0 0.5 0"/>
<feBlend mode="normal" in2="BackgroundImageFix" result="effect1_dropShadow_2075_1346"/>
<feBlend mode="normal" in="SourceGraphic" in2="effect1_dropShadow_2075_1346" result="shape"/>
</filter>
<filter id="filter1_f_2075_1346" x="139.192" y="115.715" width="176.292" height="129.208" filterUnits="userSpaceOnUse" color-interpolation-filters="sRGB">
<feFlood flood-opacity="0" result="BackgroundImageFix"/>
<feBlend mode="normal" in="SourceGraphic" in2="BackgroundImageFix" result="shape"/>
<feGaussianBlur stdDeviation="22.2772" result="effect1_foregroundBlur_2075_1346"/>
</filter>
<filter id="filter2_f_2075_1346" x="281.316" y="115.716" width="176.292" height="129.208" filterUnits="userSpaceOnUse" color-interpolation-filters="sRGB">
<feFlood flood-opacity="0" result="BackgroundImageFix"/>
<feBlend mode="normal" in="SourceGraphic" in2="BackgroundImageFix" result="shape"/>
<feGaussianBlur stdDeviation="22.2772" result="effect1_foregroundBlur_2075_1346"/>
</filter>
<filter id="filter3_d_2075_1346" x="152.474" y="125.995" width="140.047" height="108.806" filterUnits="userSpaceOnUse" color-interpolation-filters="sRGB">
<feFlood flood-opacity="0" result="BackgroundImageFix"/>
<feColorMatrix in="SourceAlpha" type="matrix" values="0 0 0 0 0 0 0 0 0 0 0 0 0 0 0 0 0 0 127 0" result="hardAlpha"/>
<feOffset dx="6.60765" dy="7.5516"/>
<feGaussianBlur stdDeviation="7.5516"/>
<feComposite in2="hardAlpha" operator="out"/>
<feColorMatrix type="matrix" values="0 0 0 0 0 0 0 0 0 0 0 0 0 0 0 0 0 0 0.5 0"/>
<feBlend mode="normal" in2="BackgroundImageFix" result="effect1_dropShadow_2075_1346"/>
<feBlend mode="normal" in="SourceGraphic" in2="effect1_dropShadow_2075_1346" result="shape"/>
</filter>
<filter id="filter4_d_2075_1346" x="304.377" y="125.995" width="144.839" height="108.806" filterUnits="userSpaceOnUse" color-interpolation-filters="sRGB">
<feFlood flood-opacity="0" result="BackgroundImageFix"/>
<feColorMatrix in="SourceAlpha" type="matrix" values="0 0 0 0 0 0 0 0 0 0 0 0 0 0 0 0 0 0 127 0" result="hardAlpha"/>
<feOffset dx="6.60765" dy="7.5516"/>
<feGaussianBlur stdDeviation="7.5516"/>
<feComposite in2="hardAlpha" operator="out"/>
<feColorMatrix type="matrix" values="0 0 0 0 0 0 0 0 0 0 0 0 0 0 0 0 0 0 0.5 0"/>
<feBlend mode="normal" in2="BackgroundImageFix" result="effect1_dropShadow_2075_1346"/>
<feBlend mode="normal" in="SourceGraphic" in2="effect1_dropShadow_2075_1346" result="shape"/>
</filter>
<linearGradient id="paint0_linear_2075_1346" x1="301" y1="1" x2="301" y2="251" gradientUnits="userSpaceOnUse">
<stop stop-color="#070708"/>
<stop offset="1" stop-color="#070708" stop-opacity="0"/>
</linearGradient>
<linearGradient id="paint1_linear_2075_1346" x1="297.5" y1="64" x2="297.5" y2="259" gradientUnits="userSpaceOnUse">
<stop stop-color="#14AE5C" stop-opacity="0.4"/>
<stop offset="1" stop-color="#14AE5C" stop-opacity="0.12"/>
</linearGradient>
<linearGradient id="paint2_linear_2075_1346" x1="350.084" y1="255.072" x2="358.103" y2="127.687" gradientUnits="userSpaceOnUse">
<stop stop-color="#ADFF85"/>
<stop offset="1" stop-color="#14AE5C"/>
</linearGradient>
<linearGradient id="paint3_linear_2075_1346" x1="270.929" y1="180.319" x2="151.534" y2="179.17" gradientUnits="userSpaceOnUse">
<stop stop-color="#E85303"/>
<stop offset="0.106748" stop-color="#E85303" stop-opacity="0"/>
</linearGradient>
<linearGradient id="paint4_linear_2075_1346" x1="500.237" y1="220.419" x2="413.054" y2="220.419" gradientUnits="userSpaceOnUse">
<stop stop-color="#E85303"/>
<stop offset="1" stop-color="#E85303" stop-opacity="0"/>
</linearGradient>
<linearGradient id="paint5_linear_2075_1346" x1="300" y1="80.8769" x2="300.345" y2="172.033" gradientUnits="userSpaceOnUse">
<stop stop-color="white"/>
<stop offset="1" stop-color="white" stop-opacity="0"/>
</linearGradient>
<linearGradient id="paint6_linear_2075_1346" x1="300.845" y1="49.5684" x2="300.845" y2="80.52" gradientUnits="userSpaceOnUse">
<stop stop-color="#FF783E"/>
<stop offset="1" stop-color="#D03900"/>
</linearGradient>
<clipPath id="clip0_2075_1346">
<rect x="1" y="1" width="600" height="250" rx="17.4597" fill="white"/>
</clipPath>
</defs>
</svg>
